<svg width="24" height="22" viewBox="0 0 24 22" fill="none" xmlns="http://www.w3.org/2000/svg">
<path d="M11.9345 5.29639C10.4208 5.29639 8.96907 5.8866 7.89872 6.93719C6.82837 7.98778 6.22705 9.41268 6.22705 10.8984C6.22705 12.3842 6.82837 13.8091 7.89872 14.8597C8.96907 15.9103 10.4208 16.5005 11.9345 16.5005C13.4482 16.5005 14.8999 15.9103 15.9702 14.8597C17.0406 13.8091 17.6419 12.3842 17.6419 10.8984C17.6419 9.41268 17.0406 7.98778 15.9702 6.93719C14.8999 5.8866 13.4482 5.29639 11.9345 5.29639V5.29639ZM11.9345 14.5366C10.9511 14.5366 10.008 14.1532 9.31263 13.4707C8.61727 12.7881 8.22663 11.8625 8.22663 10.8972C8.22663 9.932 8.61727 9.0063 9.31263 8.32379C10.008 7.64127 10.9511 7.25783 11.9345 7.25783C12.9179 7.25783 13.861 7.64127 14.5563 8.32379C15.2517 9.0063 15.6423 9.932 15.6423 10.8972C15.6423 11.8625 15.2517 12.7881 14.5563 13.4707C13.861 14.1532 12.9179 14.5366 11.9345 14.5366V14.5366Z" fill="white"/>
<path d="M17.8682 6.39648C18.603 6.39648 19.1987 5.8117 19.1987 5.09033C19.1987 4.36896 18.603 3.78418 17.8682 3.78418C17.1333 3.78418 16.5376 4.36896 16.5376 5.09033C16.5376 5.8117 17.1333 6.39648 17.8682 6.39648Z" fill="white"/>
<path d="M22.4681 3.76283C22.1824 3.03859 21.7457 2.38088 21.1861 1.83182C20.6265 1.28275 19.9562 0.854416 19.2182 0.574237C18.3546 0.256053 17.4423 0.0840048 16.52 0.0654193C15.3314 0.0145375 14.9549 0 11.9408 0C8.92661 0 8.54027 -1.21853e-07 7.36151 0.0654193C6.43997 0.0830545 5.52827 0.255138 4.6658 0.574237C3.92761 0.854089 3.25717 1.28231 2.6975 1.83142C2.13783 2.38052 1.70129 3.0384 1.41588 3.76283C1.09164 4.61039 0.916749 5.50594 0.898711 6.41111C0.845636 7.57654 0.82959 7.94604 0.82959 10.9057C0.82959 13.8641 0.82959 14.2408 0.898711 15.4002C0.917225 16.3064 1.09126 17.2005 1.41588 18.0497C1.70209 18.7739 2.13906 19.4315 2.69886 19.9805C3.25866 20.5296 3.929 20.9579 4.66703 21.2383C5.52788 21.5693 6.43995 21.7536 7.36398 21.7835C8.55261 21.8343 8.92907 21.8501 11.9432 21.8501C14.9574 21.8501 15.3437 21.8501 16.5225 21.7835C17.4446 21.7651 18.357 21.5934 19.2207 21.2759C19.9585 20.995 20.6286 20.5663 21.1881 20.0171C21.7477 19.4679 22.1845 18.8102 22.4706 18.0861C22.7952 17.238 22.9693 16.344 22.9878 15.4378C23.0408 14.2723 23.0569 13.9028 23.0569 10.9432C23.0569 7.9836 23.0569 7.60804 22.9878 6.44866C22.9734 5.5307 22.7976 4.62206 22.4681 3.76283V3.76283ZM20.9647 15.3106C20.9568 16.0088 20.8269 16.7004 20.5809 17.3555C20.3955 17.8266 20.1117 18.2545 19.7478 18.6114C19.3839 18.9684 18.9478 19.2467 18.4678 19.4284C17.8077 19.6688 17.1105 19.7962 16.4065 19.8051C15.2339 19.8584 14.9031 19.8718 11.8963 19.8718C8.88711 19.8718 8.57977 19.8718 7.38496 19.8051C6.68132 19.7967 5.98443 19.6692 5.32491 19.4284C4.84315 19.2478 4.40536 18.9701 4.03987 18.613C3.67438 18.2559 3.38933 17.8275 3.20315 17.3555C2.96054 16.7075 2.83078 16.0239 2.81928 15.3336C2.76621 14.1827 2.75387 13.858 2.75387 10.9069C2.75387 7.95452 2.75387 7.65286 2.81928 6.47895C2.82726 5.78117 2.9571 5.0899 3.20315 4.4352C3.57961 3.47935 4.35105 2.72702 5.32491 2.36116C5.98476 2.12146 6.68144 1.99404 7.38496 1.98439C8.55878 1.9323 8.88834 1.91776 11.8963 1.91776C14.9043 1.91776 15.2129 1.91776 16.4065 1.98439C17.1105 1.9927 17.8078 2.12016 18.4678 2.36116C18.9478 2.54321 19.3838 2.82176 19.7477 3.17894C20.1116 3.53611 20.3954 3.96402 20.5809 4.4352C20.8235 5.08327 20.9533 5.7668 20.9647 6.45714C21.0178 7.60925 21.0314 7.93271 21.0314 10.8851C21.0314 13.8362 21.0314 14.1536 20.9783 15.3118H20.9647V15.3106Z" fill="white"/>
</svg>
