<svg width="25" height="17" viewBox="0 0 25 17" fill="none" xmlns="http://www.w3.org/2000/svg">
<path d="M24.5101 3.20876C24.3731 2.71527 24.1052 2.26523 23.7333 1.90343C23.3614 1.54162 22.8983 1.28067 22.3902 1.14654C20.5061 0.644413 12.9685 0.636239 12.9685 0.636239C12.9685 0.636239 5.43213 0.628065 3.54683 1.108C3.03903 1.2483 2.5769 1.51295 2.20483 1.87653C1.83275 2.24011 1.56322 2.69042 1.42212 3.18423C0.925225 5.01291 0.920412 8.80571 0.920412 8.80571C0.920412 8.80571 0.915599 12.6172 1.40888 14.4272C1.6856 15.4279 2.49771 16.2185 3.52999 16.4882C5.43334 16.9904 12.9505 16.9985 12.9505 16.9985C12.9505 16.9985 20.488 17.0067 22.3721 16.5279C22.8805 16.394 23.344 16.1337 23.7168 15.7726C24.0897 15.4115 24.359 14.9623 24.4981 14.4692C24.9962 12.6417 24.9998 8.85008 24.9998 8.85008C24.9998 8.85008 25.0238 5.03743 24.5101 3.20876V3.20876ZM10.5574 12.3194L10.5635 5.31301L16.8281 8.82205L10.5574 12.3194V12.3194Z" fill="white"/>
</svg>
