<svg width="163" height="22" viewBox="0 0 163 22" fill="none" xmlns="http://www.w3.org/2000/svg">
<path d="M7.21982 21.9658V11.9625H10.5113L11.0005 8.04585H7.21982V5.55112C7.21982 4.42092 7.52694 3.64711 9.10899 3.64711H11.1136V0.155212C10.1383 0.0480398 9.15785 -0.00370795 8.1769 0.00020647C5.26755 0.00020647 3.27005 1.82122 3.27005 5.16421V8.03853H0V11.9552H3.27719V21.9658H7.21982Z" fill="white"/>
<path d="M75.9345 5.33276C74.4208 5.33276 72.9691 5.92701 71.8987 6.98476C70.8284 8.04252 70.2271 9.47715 70.2271 10.973C70.2271 12.4689 70.8284 13.9036 71.8987 14.9613C72.9691 16.0191 74.4208 16.6133 75.9345 16.6133C77.4482 16.6133 78.8999 16.0191 79.9702 14.9613C81.0405 13.9036 81.6419 12.4689 81.6419 10.973C81.6419 9.47715 81.0405 8.04252 79.9702 6.98476C78.8999 5.92701 77.4482 5.33276 75.9345 5.33276ZM75.9345 14.636C74.9511 14.636 74.008 14.25 73.3126 13.5628C72.6173 12.8756 72.2266 11.9436 72.2266 10.9718C72.2266 10 72.6173 9.068 73.3126 8.38082C74.008 7.69364 74.9511 7.30759 75.9345 7.30759C76.9178 7.30759 77.8609 7.69364 78.5563 8.38082C79.2516 9.068 79.6423 10 79.6423 10.9718C79.6423 11.9436 79.2516 12.8756 78.5563 13.5628C77.8609 14.25 76.9178 14.636 75.9345 14.636Z" fill="white"/>
<path d="M81.8682 6.44064C82.603 6.44064 83.1987 5.85193 83.1987 5.12572C83.1987 4.3995 82.603 3.81079 81.8682 3.81079C81.1333 3.81079 80.5376 4.3995 80.5376 5.12572C80.5376 5.85193 81.1333 6.44064 81.8682 6.44064Z" fill="white"/>
<path d="M86.4681 3.78865C86.1824 3.05943 85.7457 2.39722 85.1861 1.84438C84.6264 1.29155 83.9562 0.860278 83.2182 0.578177C82.3546 0.25781 81.4423 0.0845811 80.52 0.0658681C79.3314 0.0146373 78.9549 0 75.9408 0C72.9266 0 72.5403 -1.22689e-07 71.3615 0.0658681C70.44 0.0836243 69.5283 0.256888 68.6658 0.578177C67.9276 0.859948 67.2572 1.2911 66.6975 1.84398C66.1378 2.39686 65.7013 3.05924 65.4159 3.78865C65.0916 4.64202 64.9167 5.54371 64.8987 6.45509C64.8456 7.62852 64.8296 8.00055 64.8296 10.9805C64.8296 13.9592 64.8296 14.3385 64.8987 15.5059C64.9172 16.4183 65.0913 17.3185 65.4159 18.1735C65.7021 18.9027 66.1391 19.5648 66.6989 20.1176C67.2587 20.6704 67.929 21.1017 68.667 21.384C69.5279 21.7172 70.4399 21.9029 71.364 21.9329C72.5526 21.9841 72.9291 22 75.9432 22C78.9574 22 79.3437 22 80.5225 21.9329C81.4446 21.9144 82.3569 21.7416 83.2207 21.4218C83.9585 21.1391 84.6285 20.7074 85.1881 20.1544C85.7477 19.6014 86.1844 18.9393 86.4706 18.2101C86.7952 17.3563 86.9692 16.4561 86.9877 15.5437C87.0408 14.3703 87.0569 13.9982 87.0569 11.0183C87.0569 8.03837 87.0569 7.66024 86.9877 6.4929C86.9734 5.56864 86.7976 4.65377 86.4681 3.78865ZM84.9647 15.4156C84.9568 16.1186 84.8269 16.815 84.5809 17.4746C84.3955 17.9489 84.1117 18.3797 83.7478 18.7391C83.3839 19.0986 82.9478 19.3788 82.4677 19.5617C81.8077 19.8037 81.1104 19.932 80.4065 19.941C79.2339 19.9947 78.9031 20.0081 75.8963 20.0081C72.8871 20.0081 72.5798 20.0081 71.385 19.941C70.6813 19.9325 69.9844 19.8042 69.3249 19.5617C68.8431 19.3799 68.4054 19.1002 68.0399 18.7407C67.6744 18.3812 67.3893 17.9499 67.2031 17.4746C66.9605 16.8221 66.8308 16.1339 66.8193 15.4388C66.7662 14.28 66.7539 13.9531 66.7539 10.9817C66.7539 8.00909 66.7539 7.70537 66.8193 6.5234C66.8273 5.82083 66.9571 5.12482 67.2031 4.46562C67.5796 3.50322 68.351 2.74573 69.3249 2.37736C69.9848 2.13601 70.6814 2.00772 71.385 1.998C72.5588 1.94555 72.8883 1.93092 75.8963 1.93092C78.9043 1.93092 79.2129 1.93092 80.4065 1.998C81.1105 2.00637 81.8078 2.13471 82.4677 2.37736C82.9478 2.56066 83.3838 2.84112 83.7477 3.20075C84.1116 3.56037 84.3954 3.99122 84.5809 4.46562C84.8235 5.11815 84.9532 5.80636 84.9647 6.50144C85.0178 7.66146 85.0314 7.98714 85.0314 10.9597C85.0314 13.9311 85.0314 14.2507 84.9783 15.4168H84.9647V15.4156Z" fill="white"/>
<path d="M162.51 6.25104C162.373 5.75417 162.105 5.30105 161.733 4.93676C161.361 4.57248 160.898 4.30974 160.39 4.17469C158.506 3.66913 150.969 3.6609 150.969 3.6609C150.969 3.6609 143.432 3.65267 141.547 4.13589C141.039 4.27715 140.577 4.54361 140.205 4.90968C139.833 5.27576 139.563 5.72915 139.422 6.22635C138.925 8.06754 138.92 11.8863 138.92 11.8863C138.92 11.8863 138.916 15.7239 139.409 17.5463C139.686 18.5539 140.498 19.3499 141.53 19.6215C143.433 20.127 150.95 20.1353 150.95 20.1353C150.95 20.1353 158.488 20.1435 160.372 19.6614C160.88 19.5266 161.344 19.2645 161.717 18.901C162.09 18.5374 162.359 18.0851 162.498 17.5886C162.996 15.7486 163 11.931 163 11.931C163 11.931 163.024 8.09223 162.51 6.25104ZM148.557 15.4241L148.563 8.36971L154.828 11.9028L148.557 15.4241Z" fill="white"/>
</svg>
